<?xml version="1.0" encoding="UTF-8" standalone="no"?>
<!DOCTYPE svg PUBLIC "-//W3C//DTD SVG 1.1//EN" "http://www.w3.org/Graphics/SVG/1.1/DTD/svg11.dtd">
<svg width="100%" height="100%" viewBox="0 0 709 709" version="1.1" xmlns="http://www.w3.org/2000/svg" xmlns:xlink="http://www.w3.org/1999/xlink" xml:space="preserve" xmlns:serif="http://www.serif.com/" style="fill-rule:evenodd;clip-rule:evenodd;stroke-linejoin:round;stroke-miterlimit:2;">
    <g transform="matrix(1.10311,0,0,1.10311,-1419.99,724.911)">
        <g transform="matrix(0,0.592786,0.592786,0,1448.43,-335.942)">
            <path d="M270,-270C419.117,-270 540,-149.117 540,0L540,540C540,689.117 419.117,810 270,810C270,810 -270,810 -270,810C-419.117,810 -540,689.117 -540,540L-540,540L-540,0C-540,-149.117 -419.117,-270 -270,-270L270,-270" style="fill:rgb(255,104,50);fill-rule:nonzero;"/>
        </g>
        <g transform="matrix(0,-0.592786,-0.592786,0,1520.75,-513.073)">
            <path d="M-42.841,-128.545C-120.098,-142.895 -199.054,-114.157 -249.012,-53.505C-324.856,38.575 -311.694,174.704 -219.615,250.548C-127.535,326.392 8.593,313.23 84.437,221.15C160.281,129.071 147.12,-7.058 55.04,-82.902C40.061,-95.24 18.693,-96.075 2.796,-84.944C-16.748,-71.26 -21.208,-44.08 -7.523,-24.537L-7.523,-24.353C-2.777,-17.418 0,-9.031 0,0C0,23.843 -19.357,43.2 -43.2,43.2C-67.043,43.2 -86.4,23.843 -86.4,0C-86.4,-6.582 -84.925,-12.822 -82.287,-18.408C-75.882,-31.972 -62.621,-41.676 -46.987,-43.036L-46.965,-43.036C-27.633,-44.727 -11.801,-59.102 -8.257,-78.182C-3.9,-101.639 -19.384,-124.188 -42.841,-128.545" style="fill:white;"/>
        </g>
        <g transform="matrix(0,-0.592786,-0.592786,0,1745.89,-592.336)">
            <path d="M-216,-216C-96.707,-216 0,-119.293 0,0C0,119.294 -96.707,216 -216,216C-335.294,216 -432,119.294 -432,0C-432,-119.293 -335.294,-216 -216,-216Z" style="fill:white;fill-rule:nonzero;"/>
        </g>
        <g transform="matrix(0,-0.592786,-0.592786,0,1795.58,-513.073)">
            <circle cx="-43.2" cy="0" r="43.2" style="fill:rgb(255,104,50);"/>
        </g>
    </g>
</svg>
